<svg width="305" height="171" viewBox="0 0 305 171" fill="none" xmlns="http://www.w3.org/2000/svg">
<mask id="path-1-inside-1_42_2" fill="white">
<rect width="305" height="171" rx="5"/>
</mask>
<rect width="305" height="171" rx="5" fill="#FFC529" stroke="black" stroke-width="30" mask="url(#path-1-inside-1_42_2)"/>
<path d="M82.6889 63.6364V77.0455H42.9645V63.6364H82.6889ZM52.0575 128V58.9851C52.0575 54.3198 52.9654 50.4508 54.7812 47.3778C56.625 44.3049 59.1392 42.0002 62.3239 40.4638C65.5085 38.9273 69.1262 38.1591 73.1768 38.1591C75.9145 38.1591 78.4148 38.3686 80.6776 38.7876C82.9683 39.2067 84.6723 39.5838 85.7898 39.919L82.6051 53.3281C81.9067 53.1046 81.0407 52.8951 80.0071 52.6996C79.0014 52.504 77.9678 52.4062 76.9062 52.4062C74.2803 52.4062 72.4505 53.0208 71.4169 54.25C70.3833 55.4512 69.8665 57.1413 69.8665 59.3203V128H52.0575ZM120.371 129.257C113.862 129.257 108.233 127.874 103.483 125.109C98.7624 122.315 95.1168 118.432 92.5467 113.46C89.9766 108.459 88.6916 102.662 88.6916 96.0696C88.6916 89.4209 89.9766 83.6103 92.5467 78.6378C95.1168 73.6373 98.7624 69.7543 103.483 66.9886C108.233 64.1951 113.862 62.7983 120.371 62.7983C126.88 62.7983 132.495 64.1951 137.216 66.9886C141.965 69.7543 145.624 73.6373 148.194 78.6378C150.765 83.6103 152.05 89.4209 152.05 96.0696C152.05 102.662 150.765 108.459 148.194 113.46C145.624 118.432 141.965 122.315 137.216 125.109C132.495 127.874 126.88 129.257 120.371 129.257ZM120.454 115.429C123.416 115.429 125.888 114.591 127.871 112.915C129.855 111.211 131.349 108.892 132.355 105.959C133.389 103.026 133.905 99.6873 133.905 95.9439C133.905 92.2005 133.389 88.8622 132.355 85.929C131.349 82.9957 129.855 80.6771 127.871 78.973C125.888 77.2689 123.416 76.4169 120.454 76.4169C117.465 76.4169 114.951 77.2689 112.912 78.973C110.9 80.6771 109.378 82.9957 108.344 85.929C107.339 88.8622 106.836 92.2005 106.836 95.9439C106.836 99.6873 107.339 103.026 108.344 105.959C109.378 108.892 110.9 111.211 112.912 112.915C114.951 114.591 117.465 115.429 120.454 115.429ZM192.738 129.257C186.229 129.257 180.6 127.874 175.851 125.109C171.13 122.315 167.484 118.432 164.914 113.46C162.344 108.459 161.059 102.662 161.059 96.0696C161.059 89.4209 162.344 83.6103 164.914 78.6378C167.484 73.6373 171.13 69.7543 175.851 66.9886C180.6 64.1951 186.229 62.7983 192.738 62.7983C199.247 62.7983 204.862 64.1951 209.583 66.9886C214.332 69.7543 217.992 73.6373 220.562 78.6378C223.132 83.6103 224.417 89.4209 224.417 96.0696C224.417 102.662 223.132 108.459 220.562 113.46C217.992 118.432 214.332 122.315 209.583 125.109C204.862 127.874 199.247 129.257 192.738 129.257ZM192.822 115.429C195.783 115.429 198.255 114.591 200.238 112.915C202.222 111.211 203.716 108.892 204.722 105.959C205.756 103.026 206.273 99.6873 206.273 95.9439C206.273 92.2005 205.756 88.8622 204.722 85.929C203.716 82.9957 202.222 80.6771 200.238 78.973C198.255 77.2689 195.783 76.4169 192.822 76.4169C189.832 76.4169 187.318 77.2689 185.279 78.973C183.268 80.6771 181.745 82.9957 180.711 85.929C179.706 88.8622 179.203 92.2005 179.203 95.9439C179.203 99.6873 179.706 103.026 180.711 105.959C181.745 108.892 183.268 111.211 185.279 112.915C187.318 114.591 189.832 115.429 192.822 115.429ZM246.458 129.089C243.692 129.089 241.318 128.112 239.334 126.156C237.379 124.173 236.401 121.798 236.401 119.033C236.401 116.295 237.379 113.948 239.334 111.993C241.318 110.037 243.692 109.06 246.458 109.06C249.14 109.06 251.486 110.037 253.498 111.993C255.509 113.948 256.515 116.295 256.515 119.033C256.515 120.876 256.04 122.567 255.09 124.103C254.168 125.612 252.953 126.827 251.444 127.749C249.936 128.643 248.274 129.089 246.458 129.089Z" fill="black"/>
</svg>
